<?xml version="1.0" standalone="no"?>
<!DOCTYPE svg PUBLIC "-//W3C//DTD SVG 20010904//EN"
 "http://www.w3.org/TR/2001/REC-SVG-20010904/DTD/svg10.dtd">
<svg version="1.0" xmlns="http://www.w3.org/2000/svg"
 width="100.000000pt" height="100.000000pt" viewBox="0 0 100.000000 100.000000"
 preserveAspectRatio="xMidYMid meet">

<g transform="translate(0.000000,100.000000) scale(0.100000,-0.100000)"
fill="#000000" stroke="none">
<path d="M450 695 l-195 -195 198 -197 197 -198 47 48 48 47 -150 150 -150
150 150 150 149 150 -44 45 c-24 25 -47 45 -50 45 -3 0 -93 -88 -200 -195z
m235 135 l29 -31 -149 -149 -150 -150 150 -150 150 -150 -33 -32 -32 -33 -183
183 -182 182 180 180 c99 99 182 180 186 180 3 0 18 -14 34 -30z"/>
<path d="M530 715 c-47 -47 -80 -85 -75 -85 14 0 170 158 164 164 -3 3 -43
-33 -89 -79z"/>
<path d="M375 560 c-10 -11 -13 -20 -8 -20 13 0 38 29 31 35 -3 3 -13 -4 -23
-15z"/>
<path d="M325 510 c-3 -5 -1 -10 4 -10 6 0 11 5 11 10 0 6 -2 10 -4 10 -3 0
-8 -4 -11 -10z"/>
<path d="M380 445 c0 -6 54 -64 120 -130 66 -66 120 -115 120 -110 0 6 -54 64
-120 130 -66 66 -120 115 -120 110z"/>
</g>
</svg>
