<?xml version="1.0" standalone="no"?>
<!DOCTYPE svg PUBLIC "-//W3C//DTD SVG 20010904//EN"
 "http://www.w3.org/TR/2001/REC-SVG-20010904/DTD/svg10.dtd">
<svg version="1.0" xmlns="http://www.w3.org/2000/svg"
 width="834.000000pt" height="834.000000pt" viewBox="0 0 834.000000 834.000000"
 preserveAspectRatio="xMidYMid meet">

<g transform="translate(0.000000,834.000000) scale(0.100000,-0.100000)"
fill="#000000" stroke="none">
<path d="M2427 5622 l-26 -28 864 -864 865 -865 -862 -862 -863 -863 28 -27
27 -28 863 863 862 862 865 -865 865 -865 30 30 30 30 -865 865 -865 865 865
865 865 865 -28 27 -27 28 -865 -865 -865 -865 -863 863 c-474 474 -865 862
-868 862 -3 0 -17 -13 -32 -28z"/>
</g>
</svg>
