<?xml version="1.0" standalone="no"?>
<!DOCTYPE svg PUBLIC "-//W3C//DTD SVG 20010904//EN"
 "http://www.w3.org/TR/2001/REC-SVG-20010904/DTD/svg10.dtd">
<svg version="1.0" xmlns="http://www.w3.org/2000/svg"
 width="1500.000000pt" height="1500.000000pt" viewBox="0 0 1500.000000 1500.000000"
 preserveAspectRatio="xMidYMid meet">
<metadata>
Created by potrace 1.16, written by Peter Selinger 2001-2019
</metadata>
<g transform="translate(0.000000,1500.000000) scale(0.100000,-0.100000)"
fill="#000000" stroke="none">
<path d="M0 7500 l0 -7500 7500 0 7500 0 0 7500 0 7500 -7500 0 -7500 0 0
-7500z m5504 3291 c653 -116 1087 -564 1215 -1256 28 -152 41 -310 41 -507 l0
-168 -479 0 -478 0 -6 208 c-9 332 -61 492 -205 637 -124 125 -295 183 -504
172 -309 -16 -510 -186 -595 -503 -25 -94 -27 -112 -27 -344 -1 -197 3 -264
18 -345 22 -123 59 -241 98 -320 61 -120 198 -233 373 -308 44 -19 233 -89
420 -157 187 -67 384 -140 438 -161 389 -155 639 -366 801 -679 110 -212 157
-406 177 -737 13 -208 7 -702 -11 -848 -62 -527 -216 -904 -469 -1148 -135
-130 -277 -218 -473 -291 -205 -76 -403 -113 -663 -122 -812 -30 -1412 326
-1618 961 -79 244 -117 512 -117 831 l0 144 480 0 480 0 0 -137 c0 -495 142
-749 470 -839 99 -28 356 -25 465 5 226 61 369 184 438 378 56 154 62 215 62
613 0 402 -6 459 -65 643 -61 192 -173 309 -393 412 -51 24 -270 106 -487 183
-469 166 -522 187 -663 259 -254 130 -424 298 -547 543 -62 124 -92 210 -123
350 -40 178 -48 279 -54 642 -9 549 27 759 182 1073 217 436 580 716 1043 805
169 32 254 39 462 35 141 -2 228 -9 314 -24z m4145 -2171 l796 -2094 3 2097 2
2097 480 0 480 0 0 -3355 0 -3355 -479 0 -479 0 -34 88 c-18 48 -378 993 -798
2099 l-765 2013 -3 -2100 -2 -2100 -480 0 -480 0 0 3355 0 3355 482 -2 481 -3
796 -2095z"/>
</g>
</svg>
