<?xml version="1.0" standalone="no"?>
<!DOCTYPE svg PUBLIC "-//W3C//DTD SVG 20010904//EN"
 "http://www.w3.org/TR/2001/REC-SVG-20010904/DTD/svg10.dtd">
<svg version="1.0" xmlns="http://www.w3.org/2000/svg"
 width="834.000000pt" height="834.000000pt" viewBox="0 0 834.000000 834.000000"
 preserveAspectRatio="xMidYMid meet">

<g transform="translate(0.000000,834.000000) scale(0.100000,-0.100000)"
fill="#000000" stroke="none">
<path d="M4055 5670 c-179 -19 -381 -78 -548 -159 -238 -115 -485 -316 -647
-526 l-44 -57 29 -24 c17 -13 33 -23 36 -21 4 1 34 36 67 78 75 93 213 225
313 300 303 226 605 330 964 330 351 0 639 -95 945 -315 96 -68 310 -276 359
-348 17 -27 35 -48 39 -48 4 0 20 11 36 24 l30 23 -34 44 c-283 367 -679 612
-1105 685 -103 18 -337 25 -440 14z"/>
<path d="M6457 4427 c-11 -28 -169 -219 -263 -316 -240 -251 -533 -467 -829
-611 -289 -141 -547 -216 -885 -259 -114 -15 -537 -6 -653 13 -407 67 -741
197 -1087 423 -251 165 -546 434 -714 651 -44 56 -84 102 -90 102 -6 0 -22 -9
-35 -19 l-25 -19 26 -40 c25 -36 115 -146 217 -263 l40 -45 -249 -249 -250
-249 27 -28 27 -29 251 250 250 251 84 -76 c102 -92 209 -178 314 -251 42 -30
77 -59 77 -64 0 -5 -93 -145 -208 -311 -114 -166 -206 -305 -205 -308 1 -3 15
-15 31 -28 l30 -23 213 311 c117 170 216 310 220 310 4 0 65 -32 135 -70 139
-75 309 -150 442 -194 45 -15 82 -29 82 -31 0 -1 -52 -146 -116 -321 -64 -176
-118 -326 -121 -335 -4 -15 33 -39 61 -39 8 0 58 123 130 323 64 177 121 328
125 335 6 10 40 6 157 -17 160 -32 296 -49 439 -53 l90 -3 5 -360 5 -360 38 0
37 -1 0 358 c0 278 3 360 13 363 6 2 55 6 107 9 121 7 273 29 420 63 63 14
123 26 133 27 15 1 39 -54 134 -317 l116 -319 31 6 c17 4 34 10 39 15 4 4 -44
151 -108 326 -63 175 -114 320 -112 322 3 2 55 23 118 47 132 50 318 141 446
218 l90 55 109 -159 c60 -87 155 -225 212 -308 l103 -150 30 22 c16 12 29 26
29 31 0 5 -93 144 -206 309 -114 165 -202 303 -198 307 5 4 54 42 109 84 95
71 303 253 334 291 13 16 36 -4 268 -236 l253 -253 30 30 30 30 -254 254 -255
254 56 61 c73 81 175 216 171 228 -2 5 -17 18 -35 29 -24 15 -32 17 -36 6z"/>
</g>
</svg>
