<?xml version="1.0" standalone="no"?>
<!DOCTYPE svg PUBLIC "-//W3C//DTD SVG 20010904//EN"
 "http://www.w3.org/TR/2001/REC-SVG-20010904/DTD/svg10.dtd">
<svg version="1.0" xmlns="http://www.w3.org/2000/svg"
 width="834.000000pt" height="835.000000pt" viewBox="0 0 834.000000 835.000000"
 preserveAspectRatio="xMidYMid meet">

<g transform="translate(0.000000,835.000000) scale(0.100000,-0.100000)"
fill="#000000" stroke="none">
<path d="M3940 5638 c-381 -36 -782 -171 -1135 -380 -323 -191 -659 -491 -884
-789 l-48 -64 45 -60 c143 -188 352 -401 539 -550 685 -545 1491 -745 2313
-574 538 113 1045 400 1466 830 110 113 279 313 291 346 15 38 -284 373 -492
552 -454 392 -977 624 -1540 685 -141 15 -419 17 -555 4z m-98 -123 c-651
-236 -962 -980 -671 -1604 138 -297 398 -528 704 -627 90 -30 51 -32 -101 -5
-585 102 -1106 387 -1554 847 -111 114 -240 265 -240 280 0 33 318 368 470
496 414 347 862 555 1370 637 111 18 117 11 22 -24z m938 -12 c424 -92 856
-316 1213 -628 207 -181 446 -450 428 -483 -44 -82 -364 -411 -521 -535 -173
-138 -401 -281 -585 -367 -211 -98 -507 -189 -695 -214 -39 -5 -34 -2 40 27
442 170 735 574 757 1042 15 332 -93 628 -318 869 -123 132 -302 248 -479 310
l-45 16 45 -6 c25 -3 97 -17 160 -31z m-316 -28 c246 -52 470 -189 623 -381
192 -240 277 -532 239 -821 -60 -454 -378 -812 -825 -930 -84 -22 -117 -26
-261 -26 -149 0 -174 2 -265 27 -202 55 -376 157 -517 304 -219 229 -319 492
-305 810 8 205 67 386 181 554 64 97 201 235 295 298 135 91 319 161 470 180
94 12 273 5 365 -15z"/>
</g>
</svg>
